<?xml version="1.0" encoding="UTF-8" standalone="no"?>
<!-- Created with Inkscape (http://www.inkscape.org/) -->

<svg
   xmlns:dc="http://purl.org/dc/elements/1.1/"
   xmlns:cc="http://creativecommons.org/ns#"
   xmlns:rdf="http://www.w3.org/1999/02/22-rdf-syntax-ns#"
   xmlns:svg="http://www.w3.org/2000/svg"
   xmlns="http://www.w3.org/2000/svg"
   xmlns:sodipodi="http://sodipodi.sourceforge.net/DTD/sodipodi-0.dtd"
   xmlns:inkscape="http://www.inkscape.org/namespaces/inkscape"
   id="svg2"
   version="1.1"
   inkscape:version="0.91 r"
   xml:space="preserve"
   width="765"
   height="990"
   viewBox="0 0 765 990"
   sodipodi:docname="F1_edit.svg"><metadata
     id="metadata8"><rdf:RDF><cc:Work
         rdf:about=""><dc:format>image/svg+xml</dc:format><dc:type
           rdf:resource="http://purl.org/dc/dcmitype/StillImage" /><dc:title></dc:title></cc:Work></rdf:RDF></metadata><defs
     id="defs6"><clipPath
       clipPathUnits="userSpaceOnUse"
       id="clipPath16"><path
         d="m 0,-0.1 612.1,0 0,792.1 L 0,792 0,-0.1 Z"
         id="path18"
         inkscape:connector-curvature="0"
         style="clip-rule:evenodd" /></clipPath></defs><sodipodi:namedview
     pagecolor="#ffffff"
     bordercolor="#666666"
     borderopacity="1"
     objecttolerance="10"
     gridtolerance="10"
     guidetolerance="10"
     inkscape:pageopacity="0"
     inkscape:pageshadow="2"
     inkscape:window-width="1855"
     inkscape:window-height="1056"
     id="namedview4"
     showgrid="false"
     inkscape:zoom="1.9070707"
     inkscape:cx="367.42939"
     inkscape:cy="648.40194"
     inkscape:window-x="65"
     inkscape:window-y="24"
     inkscape:window-maximized="1"
     inkscape:current-layer="g14" /><g
     id="g10"
     inkscape:groupmode="layer"
     inkscape:label="quizscheduleaut16-174Aug"
     transform="matrix(1.25,0,0,-1.25,0,990)"><g
       id="g12"><g
         id="g14"
         clip-path="url(#clipPath16)"><g
           id="g20"><text
             transform="matrix(1,0,0,-1,147.7,720.3)"
             style="font-variant:normal;font-weight:normal;font-size:16px;font-family:'Liberation Serif';-inkscape-font-specification:LiberationSerif;writing-mode:lr-tb;fill:#000000;fill-opacity:1;fill-rule:nonzero;stroke:none"
             id="text22"><tspan
               x="0 5.296 16.799999 28.384001 33.68 45.264 56.848 60.848 66.047997 77.632004 86.528 96.32 101.616 111.408 122.992 132.688 142.48 146.48 158.064 166.96001 170.65601 180.35201 190.144 200.832 212.336 223.92 235.504 245.2 256.784 268.36801 279.35999 283.35999 293.952 305.53601 319.728 330.41599 340.41599"
               y="0"
               sodipodi:role="line"
               id="tspan24">INDIAN INSTITUTE OF TECHNOLOGY BOMBAY</tspan></text>
</g><g
           id="g26"><text
             transform="matrix(1,0,0,-1,467.8,687.3)"
             style="font-variant:normal;font-weight:normal;font-size:12px;font-family:'Liberation Serif';-inkscape-font-specification:LiberationSerif;writing-mode:lr-tb;fill:#000000;fill-opacity:1;fill-rule:nonzero;stroke:none"
             id="text28"><tspan
               x="0 8.6879997 13.992 19.296 25.296 30.684 39.984001 43.284 48.672001 51.672001 58.355999 63.66 68.963997 72.264 75.564003 81.564003"
               y="0"
               sodipodi:role="line"
               id="tspan30">Academic Section</tspan></text>
</g><g
           id="g32"><text
             transform="matrix(1,0,0,-1,476.7,673.5)"
             style="font-variant:normal;font-weight:normal;font-size:12px;font-family:'Liberation Serif';-inkscape-font-specification:LiberationSerif;writing-mode:lr-tb;fill:#000000;fill-opacity:1;fill-rule:nonzero;stroke:none"
             id="text34"><tspan
               x="0"
               y="0"
               id="tspan36">3</tspan></text>
</g><g
           id="g38"><text
             transform="matrix(1,0,0,-1,482.7,678.2)"
             style="font-variant:normal;font-weight:normal;font-size:7px;font-family:'Liberation Serif';-inkscape-font-specification:LiberationSerif;writing-mode:lr-tb;fill:#000000;fill-opacity:1;fill-rule:nonzero;stroke:none"
             id="text40"><tspan
               x="0 2.303"
               y="0"
               sodipodi:role="line"
               id="tspan42">rd</tspan></text>
</g><g
           id="g44"><text
             transform="matrix(1,0,0,-1,490.804,673.5)"
             style="font-variant:normal;font-weight:normal;font-size:12px;font-family:'Liberation Serif';-inkscape-font-specification:LiberationSerif;writing-mode:lr-tb;fill:#000000;fill-opacity:1;fill-rule:nonzero;stroke:none"
             id="text46"><tspan
               x="0 8.6879997 14.688 20.688 26.688 31.379999 34.68 37.68 40.68 46.68 52.68 58.68"
               y="0"
               sodipodi:role="line"
               id="tspan48">August, 2016</tspan></text>
</g><g
           id="g50"><text
             transform="matrix(1,0,0,-1,172.4,644)"
             style="font-variant:normal;font-weight:bold;font-size:14px;font-family:'Liberation Serif';-inkscape-font-specification:LiberationSerif-Bold;writing-mode:lr-tb;fill:#000000;fill-opacity:1;fill-rule:nonzero;stroke:none"
             id="text52"><tspan
               x="0 10.892 18.676001 22.568001 28.77 32.27 40.054001 46.256001 54.040001 60.242001 68.026001 75.809998 79.702003 85.903999 89.403999 94.010002 101.094 106.988 109.69 119.784 127.568 132.258 139.95799 151.64799 159.43201 162.93201 170.716 176.918 188.608 194.81 200.214 204.90401 211.106 217.112 220.612 227.612 234.612 241.612 248.51401 253.20399 260.20401"
               y="0"
               sodipodi:role="line"
               id="tspan54">Quiz Schedule for Autumn Semester 2016-17</tspan><tspan
               x="0 10.892 18.676001 22.568001 28.77 32.27 40.054001 46.256001 54.040001 60.242001 68.026001 75.809998 79.702003 85.903999 89.403999 94.010002 101.094 106.988 109.69 119.784 127.568 132.258 139.95799 151.64799 159.43201 162.93201 170.716 176.918 188.608 194.81 200.214 204.90401 211.106 217.112 220.612 227.612 234.612 241.612 248.51401 253.20399 260.20401"
               y="0"
               sodipodi:role="line"
               id="tspan4466" /></text>
</g><g
           id="g56"
           transform="translate(172.4,644)"><path
             d="m 0,-1.2 267.4,0"
             style="fill:none;stroke:#000000;stroke-width:0.80000001;stroke-linecap:butt;stroke-linejoin:miter;stroke-miterlimit:10;stroke-dasharray:none;stroke-opacity:1"
             id="path58"
             inkscape:connector-curvature="0" /></g><g
           id="g60"><text
             transform="matrix(1,0,0,-1,56.8,593.8)"
             style="font-variant:normal;font-weight:bold;font-size:16px;font-family:'Liberation Serif';-inkscape-font-specification:LiberationSerif-Bold;writing-mode:lr-tb;fill:#000000;fill-opacity:1;fill-rule:nonzero;stroke:none"
             id="text62"><tspan
               x="0 12.4 21.392 25.792 32.880001 36.880001"
               y="0"
               sodipodi:role="line"
               id="tspan64">Quiz 1</tspan></text>
</g><g
           id="g66"
           transform="translate(56.8,593.8)"><path
             d="m 0,-1.4 44.9,0"
             style="fill:none;stroke:#000000;stroke-width:0.89999998;stroke-linecap:butt;stroke-linejoin:miter;stroke-miterlimit:10;stroke-dasharray:none;stroke-opacity:1"
             id="path68"
             inkscape:connector-curvature="0" /></g><g
           id="g70"><text
             transform="matrix(1,0,0,-1,56.8,560.8)"
             style="font-variant:normal;font-weight:normal;font-size:12px;font-family:'Liberation Serif';-inkscape-font-specification:LiberationSerif;writing-mode:lr-tb;fill:#000000;fill-opacity:1;fill-rule:nonzero;stroke:none"
             id="text72"><tspan
               x="0 10.404 15.708 21.708 27.708 33.012001 37.703999 43.703999 49.007999 55.007999"
               y="0"
               sodipodi:role="line"
               id="tspan74">Wednesday </tspan></text>
</g><g
           id="g76"><text
             transform="matrix(1,0,0,-1,127.7,560.8)"
             style="font-variant:normal;font-weight:normal;font-size:12px;font-family:'Liberation Serif';-inkscape-font-specification:LiberationSerif;writing-mode:lr-tb;fill:#000000;fill-opacity:1;fill-rule:nonzero;stroke:none"
             id="text78"><tspan
               x="0 6 12 15.3 21.299999 27.299999 30.6 36.599998 42.599998 48.599998"
               y="0"
               sodipodi:role="line"
               id="tspan80">17/08/2016</tspan></text>
</g><g
           id="g82"><text
             transform="matrix(1,0,0,-1,234.1,560.8)"
             style="font-variant:normal;font-weight:normal;font-size:12px;font-family:'Liberation Serif';-inkscape-font-specification:LiberationSerif;writing-mode:lr-tb;fill:#000000;fill-opacity:1;fill-rule:nonzero;stroke:none"
             id="text84"><tspan
               x="0 10.596 19.284 25.284 31.284 37.284"
               y="0"
               sodipodi:role="line"
               id="tspan86">MA105 </tspan></text>
</g><g
           id="g88"><text
             transform="matrix(1,0,0,-1,56.8,547)"
             style="font-variant:normal;font-weight:normal;font-size:12px;font-family:'Liberation Serif';-inkscape-font-specification:LiberationSerif;writing-mode:lr-tb;fill:#000000;fill-opacity:1;fill-rule:nonzero;stroke:none"
             id="text90"><tspan
               x="0 6.684 10.68 13.98 19.98 25.284"
               y="0"
               sodipodi:role="line"
               id="tspan92">Friday</tspan></text>
</g><g
           id="g94" /><g
           id="g96"><text
             transform="matrix(1,0,0,-1,127.7,547)"
             style="font-variant:normal;font-weight:normal;font-size:12px;font-family:'Liberation Serif';-inkscape-font-specification:LiberationSerif;writing-mode:lr-tb;fill:#000000;fill-opacity:1;fill-rule:nonzero;stroke:none"
             id="text98"><tspan
               x="0 6 12 15.3 21.299999 27.299999 30.6 36.599998 42.599998 48.599998 54.683998"
               y="0"
               sodipodi:role="line"
               id="tspan100">19/08/2016 </tspan></text>
</g><g
           id="g102"><text
             transform="matrix(1,0,0,-1,234.1,547)"
             style="font-variant:normal;font-weight:normal;font-size:12px;font-family:'Liberation Serif';-inkscape-font-specification:LiberationSerif;writing-mode:lr-tb;fill:#000000;fill-opacity:1;fill-rule:nonzero;stroke:none"
             id="text104"><tspan
               x="0 6.5999999 15.288 21.288 27.288"
               y="0"
               sodipodi:role="line"
               id="tspan106">PH107</tspan></text>
</g><g
           id="g108"><text
             transform="matrix(1,0,0,-1,56.8,533.2)"
             style="font-variant:normal;font-weight:normal;font-size:12px;font-family:'Liberation Serif';-inkscape-font-specification:LiberationSerif;writing-mode:lr-tb;fill:#000000;fill-opacity:1;fill-rule:nonzero;stroke:none"
             id="text110"><tspan
               x="0 6.684 11.988 15.288 21.288 25.284 31.284 36.588001 42.672001"
               y="0"
               sodipodi:role="line"
               id="tspan112">Saturday </tspan></text>
</g><g
           id="g114"><text
             transform="matrix(1,0,0,-1,127.7,533.2)"
             style="font-variant:normal;font-weight:normal;font-size:12px;font-family:'Liberation Serif';-inkscape-font-specification:LiberationSerif;writing-mode:lr-tb;fill:#000000;fill-opacity:1;fill-rule:nonzero;stroke:none"
             id="text116"><tspan
               x="0 6 12 15.3 21.299999 27.299999 30.6 36.599998 42.599998 48.599998"
               y="0"
               sodipodi:role="line"
               id="tspan118">20/08/2016</tspan></text>
</g><g
           id="g120"><text
             transform="matrix(1,0,0,-1,234.1,533.2)"
             style="font-variant:normal;font-weight:normal;font-size:12px;font-family:'Liberation Serif';-inkscape-font-specification:LiberationSerif;writing-mode:lr-tb;fill:#000000;fill-opacity:1;fill-rule:nonzero;stroke:none"
             id="text122"><tspan
               x="0 7.8959999 16.584 22.584 28.584"
               y="0"
               sodipodi:role="line"
               id="tspan124">CH105</tspan></text>
</g><g
           id="g126"><text
             transform="matrix(1,0,0,-1,272.5,533.2)"
             style="font-variant:normal;font-weight:normal;font-size:12px;font-family:'Liberation Serif';-inkscape-font-specification:LiberationSerif;writing-mode:lr-tb;fill:#000000;fill-opacity:1;fill-rule:nonzero;stroke:none"
             id="text128"><tspan
               x="0 3.9960001 9.9960003 15.996 18.996 24.996 30.996 33.995998 39.299999 48.683998 51.683998 54.984001 60.984001 63.984001 69.984001 75.984001 78.984001 84.984001 94.283997 98.375999"
               y="0"
               sodipodi:role="line"
               id="tspan130">(10.00 am to 12 pm) </tspan></text>
</g><g
           id="g132"><text
             transform="matrix(1,0,0,-1,56.8,519.4)"
             style="font-variant:normal;font-weight:normal;font-size:12px;font-family:'Liberation Serif';-inkscape-font-specification:LiberationSerif;writing-mode:lr-tb;fill:#000000;fill-opacity:1;fill-rule:nonzero;stroke:none"
             id="text134"><tspan
               x="0 10.404 15.708 21.708 27.708 33.012001 37.703999 43.703999 49.007999 55.007999"
               y="0"
               sodipodi:role="line"
               id="tspan136">Wednesday </tspan></text>
</g><g
           id="g138"><text
             transform="matrix(1,0,0,-1,127.7,519.4)"
             style="font-variant:normal;font-weight:normal;font-size:12px;font-family:'Liberation Serif';-inkscape-font-specification:LiberationSerif;writing-mode:lr-tb;fill:#000000;fill-opacity:1;fill-rule:nonzero;stroke:none"
             id="text140"><tspan
               x="0 6 12 15.3 21.299999 27.299999 30.6 36.599998 42.599998 48.599998"
               y="0"
               sodipodi:role="line"
               id="tspan142">24/08/2016</tspan></text>
</g><g
           id="g144"><text
             transform="matrix(1,0,0,-1,234.1,519.4)"
             style="font-variant:normal;font-weight:normal;font-size:12px;font-family:'Liberation Serif';-inkscape-font-specification:LiberationSerif;writing-mode:lr-tb;fill:#000000;fill-opacity:1;fill-rule:nonzero;stroke:none"
             id="text146"><tspan
               x="0 7.9920001 15.984 21.983999 27.983999"
               y="0"
               sodipodi:role="line"
               id="tspan148">BB101</tspan></text>
</g><g
           id="g150"><text
             transform="matrix(1,0,0,-1,56.8,505.6)"
             style="font-variant:normal;font-weight:normal;font-size:12px;font-family:'Liberation Serif';-inkscape-font-specification:LiberationSerif;writing-mode:lr-tb;fill:#000000;fill-opacity:1;fill-rule:nonzero;stroke:none"
             id="text152"><tspan
               x="0 6.684 10.68 13.98 19.98 25.284"
               y="0"
               sodipodi:role="line"
               id="tspan154">Friday</tspan></text>
</g><g
           id="g156" /><g
           id="g158"><text
             transform="matrix(1,0,0,-1,127.7,505.6)"
             style="font-variant:normal;font-weight:normal;font-size:12px;font-family:'Liberation Serif';-inkscape-font-specification:LiberationSerif;writing-mode:lr-tb;fill:#000000;fill-opacity:1;fill-rule:nonzero;stroke:none"
             id="text160"><tspan
               x="0 6 12 15.3 21.299999 27.299999 30.6 36.599998 42.599998 48.599998"
               y="0"
               sodipodi:role="line"
               id="tspan162">26/08/2016</tspan></text>
</g><g
           id="g164"><text
             transform="matrix(1,0,0,-1,234.1,505.6)"
             style="font-variant:normal;font-weight:normal;font-size:12px;font-family:'Liberation Serif';-inkscape-font-specification:LiberationSerif;writing-mode:lr-tb;fill:#000000;fill-opacity:1;fill-rule:nonzero;stroke:none"
             id="text166"><tspan
               x="0 7.9920001 14.676 20.676001 26.676001"
               y="0"
               sodipodi:role="line"
               id="tspan168">CS101</tspan></text>
</g><g
           id="g170"><text
             transform="matrix(1,0,0,-1,56.8,460.4)"
             style="font-variant:normal;font-weight:bold;font-size:16px;font-family:'Liberation Serif';-inkscape-font-specification:LiberationSerif-Bold;writing-mode:lr-tb;fill:#000000;fill-opacity:1;fill-rule:nonzero;stroke:none"
             id="text172"><tspan
               x="0 12.4 21.392 25.792 32.880001 36.880001"
               y="0"
               sodipodi:role="line"
               id="tspan174">Quiz 2</tspan></text>
</g><g
           id="g176"
           transform="translate(56.8,460.4)"><path
             d="m 0,-1.4 44.9,0"
             style="fill:none;stroke:#000000;stroke-width:0.89999998;stroke-linecap:butt;stroke-linejoin:miter;stroke-miterlimit:10;stroke-dasharray:none;stroke-opacity:1"
             id="path178"
             inkscape:connector-curvature="0" /></g><g
           id="g180"><text
             transform="matrix(1,0,0,-1,56.8,432)"
             style="font-variant:normal;font-weight:normal;font-size:12px;font-family:'Liberation Serif';-inkscape-font-specification:LiberationSerif;writing-mode:lr-tb;fill:#000000;fill-opacity:1;fill-rule:nonzero;stroke:none"
             id="text182"><tspan
               x="0 10.404 15.708 21.708 27.708 33.012001 37.703999 43.703999 49.007999 55.007999"
               y="0"
               sodipodi:role="line"
               id="tspan184">Wednesday </tspan></text>
</g><g
           id="g186"><text
             transform="matrix(1,0,0,-1,127.7,432)"
             style="font-variant:normal;font-weight:normal;font-size:12px;font-family:'Liberation Serif';-inkscape-font-specification:LiberationSerif;writing-mode:lr-tb;fill:#000000;fill-opacity:1;fill-rule:nonzero;stroke:none"
             id="text188"><tspan
               x="0 6 12 15.3 21.299999 27.299999 30.6 36.599998 42.599998 48.599998"
               y="0"
               sodipodi:role="line"
               id="tspan190">05/10/2016</tspan></text>
</g><g
           id="g192"><text
             transform="matrix(1,0,0,-1,234.1,432)"
             style="font-variant:normal;font-weight:normal;font-size:12px;font-family:'Liberation Serif';-inkscape-font-specification:LiberationSerif;writing-mode:lr-tb;fill:#000000;fill-opacity:1;fill-rule:nonzero;stroke:none"
             id="text194"><tspan
               x="0 7.9920001 15.984 21.983999 27.983999"
               y="0"
               sodipodi:role="line"
               id="tspan196">BB101</tspan></text>
</g><g
           id="g198"><text
             transform="matrix(1,0,0,-1,56.8,418.2)"
             style="font-variant:normal;font-weight:normal;font-size:12px;font-family:'Liberation Serif';-inkscape-font-specification:LiberationSerif;writing-mode:lr-tb;fill:#000000;fill-opacity:1;fill-rule:nonzero;stroke:none"
             id="text200"><tspan
               x="0 6.684 10.68 13.98 19.98 25.284 31.368"
               y="0"
               sodipodi:role="line"
               id="tspan202">Friday </tspan></text>
</g><g
           id="g204" /><g
           id="g206"><text
             transform="matrix(1,0,0,-1,127.7,418.2)"
             style="font-variant:normal;font-weight:normal;font-size:12px;font-family:'Liberation Serif';-inkscape-font-specification:LiberationSerif;writing-mode:lr-tb;fill:#000000;fill-opacity:1;fill-rule:nonzero;stroke:none"
             id="text208"><tspan
               x="0 6 12 15.3 21.299999 27.299999 30.6 36.599998 42.599998 48.599998"
               y="0"
               sodipodi:role="line"
               id="tspan210">07/10/2016</tspan></text>
</g><g
           id="g212"><text
             transform="matrix(1,0,0,-1,234.1,418.2)"
             style="font-variant:normal;font-weight:normal;font-size:12px;font-family:'Liberation Serif';-inkscape-font-specification:LiberationSerif;writing-mode:lr-tb;fill:#000000;fill-opacity:1;fill-rule:nonzero;stroke:none"
             id="text214"><tspan
               x="0 10.596 19.284 25.284 31.284"
               y="0"
               sodipodi:role="line"
               id="tspan216">MA105</tspan></text>
</g><g
           id="g218"><text
             transform="matrix(1,0,0,-1,56.8,404.4)"
             style="font-variant:normal;font-weight:normal;font-size:12px;font-family:'Liberation Serif';-inkscape-font-specification:LiberationSerif;writing-mode:lr-tb;fill:#000000;fill-opacity:1;fill-rule:nonzero;stroke:none"
             id="text220"><tspan
               x="0 6.684 11.988 15.288 21.288 25.284 31.284 36.588001 42.672001"
               y="0"
               sodipodi:role="line"
               id="tspan222">Saturday </tspan></text>
</g><g
           id="g224"><text
             transform="matrix(1,0,0,-1,127.7,404.4)"
             style="font-variant:normal;font-weight:normal;font-size:12px;font-family:'Liberation Serif';-inkscape-font-specification:LiberationSerif;writing-mode:lr-tb;fill:#000000;fill-opacity:1;fill-rule:nonzero;stroke:none"
             id="text226"><tspan
               x="0 6 12 15.3 21.299999 27.299999 30.6 36.599998 42.599998 48.599998"
               y="0"
               sodipodi:role="line"
               id="tspan228">15/10/2015</tspan></text>
</g><g
           id="g230"><text
             transform="matrix(1,0,0,-1,234.1,404.4)"
             style="font-variant:normal;font-weight:normal;font-size:12px;font-family:'Liberation Serif';-inkscape-font-specification:LiberationSerif;writing-mode:lr-tb;fill:#000000;fill-opacity:1;fill-rule:nonzero;stroke:none"
             id="text232"><tspan
               x="0 7.8959999 16.584 22.584 28.584 34.584 37.584 41.580002 47.580002 53.580002 56.580002 62.580002 68.580002 71.580002 76.968002 86.267998 89.267998 92.568001 98.568001 101.568 107.568 113.568 116.568 122.568 131.868 135.96001"
               y="0"
               sodipodi:role="line"
               id="tspan234">CH107 (10.00 am to 12 pm) </tspan></text>
</g><g
           id="g236"><text
             transform="matrix(1,0,0,-1,56.8,390.6)"
             style="font-variant:normal;font-weight:normal;font-size:12px;font-family:'Liberation Serif';-inkscape-font-specification:LiberationSerif;writing-mode:lr-tb;fill:#000000;fill-opacity:1;fill-rule:nonzero;stroke:none"
             id="text238"><tspan
               x="0 10.404 15.708 21.708 27.708 33.012001 37.703999 43.703999 49.007999 55.007999"
               y="0"
               sodipodi:role="line"
               id="tspan240">Wednesday </tspan></text>
</g><g
           id="g242"><text
             transform="matrix(1,0,0,-1,127.7,390.6)"
             style="font-variant:normal;font-weight:normal;font-size:12px;font-family:'Liberation Serif';-inkscape-font-specification:LiberationSerif;writing-mode:lr-tb;fill:#000000;fill-opacity:1;fill-rule:nonzero;stroke:none"
             id="text244"><tspan
               x="0 6 12 15.3 21.299999 27.299999 30.6 36.599998 42.599998 48.599998"
               y="0"
               sodipodi:role="line"
               id="tspan246">19/10/2016</tspan></text>
</g><g
           id="g248"><text
             transform="matrix(1,0,0,-1,234.1,390.6)"
             style="font-variant:normal;font-weight:normal;font-size:12px;font-family:'Liberation Serif';-inkscape-font-specification:LiberationSerif;writing-mode:lr-tb;fill:#000000;fill-opacity:1;fill-rule:nonzero;stroke:none"
             id="text250"><tspan
               x="0 6.5999999 15.288 21.288 27.288"
               y="0"
               sodipodi:role="line"
               id="tspan252">PH107</tspan></text>
</g><g
           id="g254"><text
             transform="matrix(1,0,0,-1,56.8,376.8)"
             style="font-variant:normal;font-weight:normal;font-size:12px;font-family:'Liberation Serif';-inkscape-font-specification:LiberationSerif;writing-mode:lr-tb;fill:#000000;fill-opacity:1;fill-rule:nonzero;stroke:none"
             id="text256"><tspan
               x="0 6.684 10.68 13.98 19.98 25.284"
               y="0"
               sodipodi:role="line"
               id="tspan258">Friday</tspan></text>
</g><g
           id="g260"><text
             transform="matrix(1,0,0,-1,127.7,376.8)"
             style="font-variant:normal;font-weight:normal;font-size:12px;font-family:'Liberation Serif';-inkscape-font-specification:LiberationSerif;writing-mode:lr-tb;fill:#000000;fill-opacity:1;fill-rule:nonzero;stroke:none"
             id="text262"><tspan
               x="0 6 12 15.3 21.299999 27.299999 30.6 36.599998 42.599998 48.599998"
               y="0"
               sodipodi:role="line"
               id="tspan264">21/10/2016</tspan></text>
</g><g
           id="g266"><text
             transform="matrix(1,0,0,-1,234.1,376.8)"
             style="font-variant:normal;font-weight:normal;font-size:12px;font-family:'Liberation Serif';-inkscape-font-specification:LiberationSerif;writing-mode:lr-tb;fill:#000000;fill-opacity:1;fill-rule:nonzero;stroke:none"
             id="text268"><tspan
               x="0 7.9920001 14.676 20.676001 26.676001 32.675999"
               y="0"
               sodipodi:role="line"
               id="tspan270">CS101 </tspan></text>
</g><g
           id="g272"><text
             transform="matrix(1,0,0,-1,56.8,335.4)"
             style="font-variant:normal;font-weight:bold;font-size:12px;font-family:'Liberation Serif';-inkscape-font-specification:LiberationSerif-Bold;writing-mode:lr-tb;fill:#000000;fill-opacity:1;fill-rule:nonzero;stroke:none"
             id="text274"><tspan
               x="0 9.3000002 13.296 19.98 25.284 30.672001 33.972 36.972 48.276001 54.276001 60.959999 66.264 72.947998 79.632004 85.632004 93.624001 99.624001 105.624 115.62"
               y="0"
               sodipodi:role="line"
               id="tspan276">Other/ Makeup Exams</tspan></text>
</g><g
           id="g278"><text
             transform="matrix(1,0,0,-1,56.8,321.6)"
             style="font-variant:normal;font-weight:normal;font-size:12px;font-family:'Liberation Serif';-inkscape-font-specification:LiberationSerif;writing-mode:lr-tb;fill:#000000;fill-opacity:1;fill-rule:nonzero;stroke:none"
             id="text280"><tspan
               x="0 10.404 15.708 21.708 27.708 33.012001 37.703999 43.703999 49.007999 55.007999"
               y="0"
               sodipodi:role="line"
               id="tspan282">Wednesday </tspan></text>
</g><g
           id="g284"><text
             transform="matrix(1,0,0,-1,127.7,321.6)"
             style="font-variant:normal;font-weight:normal;font-size:12px;font-family:'Liberation Serif';-inkscape-font-specification:LiberationSerif;writing-mode:lr-tb;fill:#000000;fill-opacity:1;fill-rule:nonzero;stroke:none"
             id="text286"><tspan
               x="0 6 12 15.3 20.903999 26.903999 30.204 36.203999 42.203999 48.203999"
               y="0"
               sodipodi:role="line"
               id="tspan288">02/11/2016</tspan></text>
</g><g
           id="g290"><text
             transform="matrix(1,0,0,-1,234.1,321.6)"
             style="font-variant:normal;font-weight:normal;font-size:12px;font-family:'Liberation Serif';-inkscape-font-specification:LiberationSerif;writing-mode:lr-tb;fill:#000000;fill-opacity:1;fill-rule:nonzero;stroke:none"
             id="text292"><tspan
               x="0 10.692 17.892 23.496 29.496"
               y="0"
               sodipodi:role="line"
               id="tspan294">ME113</tspan></text>
</g><g
           id="g296"><text
             transform="matrix(1,0,0,-1,56.8,278.3)"
             style="font-variant:normal;font-weight:bold;font-size:14px;font-family:'Liberation Serif';-inkscape-font-specification:LiberationSerif-Bold;writing-mode:lr-tb;fill:#000000;fill-opacity:1;fill-rule:nonzero;stroke:none"
             id="text298"><tspan
               x="0 13.202 22.497999 29.497999 36.498001 43.498001 47.487999 56.784 66.080002 72.379997 78.582001"
               y="0"
               sodipodi:role="line"
               id="tspan300">ME102/EE111</tspan></text>
</g><g
           id="g302"><text
             transform="matrix(1,0,0,-1,145.9,278.3)"
             style="font-variant:normal;font-weight:normal;font-size:14px;font-family:'Liberation Serif';-inkscape-font-specification:LiberationSerif;writing-mode:lr-tb;fill:#000000;fill-opacity:1;fill-rule:nonzero;stroke:none"
             id="text304"><tspan
               x="0 7 14 17.892 24.094 30.296 36.582001 41.986 45.486 55.580002 59.472 63.363998 67.255997 70.755997 77.755997 83.958 87.458 94.458 98.853996 105.854 112.056 119.056 122.948 129.14999 135.35201 142.436 145.936 152.138 159.138 166.138 169.638 175.84 182.84 189.84 196.84 203.84 210.04201 213.93401 220.136 227.136 230.636 237.636 244.636 248.136 252.826 259.02802 264.43201 271.43201 277.634 283.836 287.728 291.62 298.62 304.90601 308.40601 315.40601 321.608 328.608 334.81 339.5 343.392 354.284 360.48599 367.48599 371.37799 376.78201"
               y="0"
               sodipodi:role="line"
               id="tspan306">quizzes will be organized and conducted by respective departments.</tspan></text>
</g><g
           id="g308"><text
             transform="matrix(1,0,0,-1,56.8,246.1)"
             style="font-variant:normal;font-weight:normal;font-size:14px;font-family:'Liberation Serif';-inkscape-font-specification:LiberationSerif;writing-mode:lr-tb;fill:#000000;fill-opacity:1;fill-rule:nonzero;stroke:none"
             id="text310"><tspan
               x="0 10.094 20.188 28.686001 37.268002 40.768002 44.66 48.16 56.742001 63.742001 69.944 80.835999 84.335999 91.335999 97.538002 104.538 111.538 117.74 123.228 126.728 136.82201 140.714 144.606 148.498 151.998 158.998 165.2 168.7 174.90199 178.79401 182.29401 192.388 198.59 202.48199"
               y="0"
               sodipodi:role="line"
               id="tspan312">NOTE : Exam venues will be at Hall</tspan></text>
</g><g
           id="g314"><text
             transform="matrix(1,0,0,-1,266.8,246.1)"
             style="font-variant:normal;font-weight:normal;font-size:14px;font-family:'Liberation Serif';-inkscape-font-specification:LiberationSerif;writing-mode:lr-tb;fill:#000000;fill-opacity:1;fill-rule:nonzero;stroke:none"
             id="text316"><tspan
               x="0 6.902 11.592"
               y="0"
               sodipodi:role="line"
               id="tspan318">1-4</tspan></text>
</g><g
           id="g320"><text
             transform="matrix(1,0,0,-1,285.4,246.1)"
             style="font-variant:normal;font-weight:normal;font-size:14px;font-family:'Liberation Serif';-inkscape-font-specification:LiberationSerif;writing-mode:lr-tb;fill:#000000;fill-opacity:1;fill-rule:nonzero;stroke:none"
             id="text322"><tspan
               x="0 3.5 6.3000002 16.393999 20.188 24.08 27.58 36.161999 45.458 55.551998 60.242001 67.241997 74.241997 81.241997 84.741997 90.944 97.146004 104.146 110.348 116.55 120.442 124.334 131.334 136.024 139.524 145.726 152.726 159.726 163.226 171.808 181.104 190.48399 193.98399 198.59 205.59 212.59 219.59 224.28 227.78"
               y="0"
               sodipodi:role="line"
               id="tspan324">, All LCH(240 capacity) and LCC (150). </tspan></text>
</g><g
           id="g326"><text
             transform="matrix(1,0,0,-1,56.8,213.9)"
             style="font-variant:normal;font-weight:normal;font-size:14px;font-family:'Liberation Serif';-inkscape-font-specification:LiberationSerif;writing-mode:lr-tb;fill:#000000;fill-opacity:1;fill-rule:nonzero;stroke:none"
             id="text328"><tspan
               x="0 7.7839999 13.986 20.188 24.08 27.972 34.972 42.854 47.138 53.34 58.029999 62.720001 68.921997 75.921997 82.921997 89.124001 100.016 106.218 113.218 117.908 122.29 132.384 136.276 140.168 144.858 149.24001 156.24001 163.226 167.608 173.81 180.81 187.81 194.81 201.81 208.81 215.01199 221.214 229.09599 233.38 241.26199 245.54601 252.54601 258.74799 265.832 272.11801 276.40201 283.40201 289.604 294.29401 301.19601 305.88599 312.97 317.35199 321.24399 328.24399 335.23001 339.612 346.612 353.612 357.504 363.70599 367.98999 372.078 380.18399 384.07599 394.96799 398.85999 405.85999 412.85999 419.146 423.42999 428.12 435.022 440.608 444.892 451.09399 454.98599 459.77399 464.05801 470.26001 477.26001 484.26001 491.26001"
               y="0"
               sodipodi:role="line"
               id="tspan330">Seating arrangement will be announced 2 days before the quiz. Timings for all above</tspan></text>
</g><g
           id="g332" /><g
           id="g334"><text
             transform="matrix(1,0,0,-1,56.8,197.8)"
             style="font-variant:normal;font-weight:normal;font-size:14px;font-family:'Liberation Serif';-inkscape-font-specification:LiberationSerif;writing-mode:lr-tb;fill:#000000;fill-opacity:1;fill-rule:nonzero;stroke:none"
             id="text336"><tspan
               x="0 7 14 17.892 24.094 30.296 36.582001 41.986 45.486 51.688 56.377998 62.580002 66.080002 73.080002 76.580002 83.580002 90.580002 94.080002 100.282 111.174 114.674 118.566 125.566 129.06599 136.06599 139.56599 146.56599 153.56599 157.06599 163.26801 174.16 177.66 181.16 188.16 195.16 199.052 205.254 210.742 216.146 219.646 226.646 230.53799 237.53799 243.74001 248.42999 258.52399 262.41599 267.82001 274.10599 277.60599 283.01001 290.01001 296.21201 302.414 306.306 310.996 314.888 321.09 328.09"
               y="0"
               sodipodi:role="line"
               id="tspan338">quizzes are 8.15 am to 9.25 am, unless otherwise specified.</tspan></text>
</g><text
           xml:space="preserve"
           style="font-style:normal;font-weight:normal;font-size:32px;line-height:125%;font-family:sans-serif;letter-spacing:0px;word-spacing:0px;fill:#000000;fill-opacity:1;stroke:none;stroke-width:1px;stroke-linecap:butt;stroke-linejoin:miter;stroke-opacity:1"
           x="254.20789"
           y="-631.51526"
           id="text4468"
           sodipodi:linespacing="125%"
           transform="scale(1,-1)"><tspan
             sodipodi:role="line"
             id="tspan4470"
             x="254.20789"
             y="-631.51526" /></text>
<text
           xml:space="preserve"
           style="font-style:normal;font-weight:normal;font-size:11px;line-height:125%;font-family:sans-serif;letter-spacing:0px;word-spacing:0px;fill:#000000;fill-opacity:1;stroke:none;stroke-width:1px;stroke-linecap:butt;stroke-linejoin:miter;stroke-opacity:1;"
           x="221.75885"
           y="-629.73553"
           id="text4472"
           sodipodi:linespacing="125%"
           transform="scale(1,-1)"><tspan
             sodipodi:role="line"
             id="tspan4474"
             x="221.75885"
             y="-629.73553"
             style="font-style:normal;font-variant:normal;font-weight:normal;font-stretch:normal;font-size:11px;font-family:'Liberation Serif';-inkscape-font-specification:'Liberation Serif';">(For first year undergradute students only)</tspan></text>
<ellipse
           style="fill:#000000;fill-opacity:0;stroke:#ef0000;stroke-width:1.71199989;stroke-linecap:square;stroke-linejoin:miter;stroke-miterlimit:4;stroke-dasharray:none;stroke-dashoffset:0;stroke-opacity:1"
           id="path4484"
           cx="320.01819"
           cy="-631.80798"
           transform="scale(1,-1)"
           rx="119.34534"
           ry="10.697034" /></g></g></g></svg>